<?xml version="1.0" encoding="utf-8"?>
<svg version="1.1" id="Layer_1" xmlns="http://www.w3.org/2000/svg" xmlns:xlink="http://www.w3.org/1999/xlink" x="0px" y="0px"
	 viewBox="0 0 90 90" enable-background="new 0 0 90 90" xml:space="preserve">

<path class="fill" d="M15.7,63.1c-1.8,0-3.4-0.6-4.6-1.9c-1.3-1.3-1.9-2.8-1.9-4.6V35.7c0-1.8,0.6-3.3,1.9-4.6
	c1.3-1.3,2.8-1.9,4.6-1.9c1.8,0,3.3,0.6,4.6,1.9c1.3,1.3,1.9,2.8,1.9,4.6v20.9c0,1.8-0.6,3.3-1.9,4.6
	C19.1,62.5,17.5,63.1,15.7,63.1z"/>
<path class="fill" d="M21,31.4v-1.5c0-4.1,1.1-7.9,3.4-11.3c1.9-3,4.5-5.4,7.6-7.3l-2.7-5.1c-0.6-1.1-0.3-2.3,0.8-3l0.1,0l0.1,0
	c0.3-0.2,0.7-0.2,1-0.2c0.8,0,1.5,0.4,1.9,1.1l2.9,5.3c2.9-1.1,5.9-1.6,9.1-1.6c3.2,0,6.2,0.6,9.1,1.6L57,4.2
	C57.4,3.4,58.1,3,58.9,3c0.3,0,0.7,0.1,1,0.2l0.1,0l0.1,0c1.1,0.6,1.4,1.8,0.8,3l-2.8,5.1c3.1,1.8,5.6,4.3,7.6,7.2
	C67.9,22,69,25.8,69,29.9v1.5H21z"/>
<path class="fill" d="M74.3,63.1c-1.8,0-3.3-0.6-4.6-1.9c-1.3-1.3-1.9-2.8-1.9-4.6V35.7c0-1.8,0.6-3.4,1.9-4.6
	c1.3-1.2,2.8-1.9,4.6-1.9c1.8,0,3.3,0.6,4.6,1.9c1.3,1.2,1.9,2.8,1.9,4.6v20.9c0,1.8-0.6,3.4-1.9,4.6
	C77.6,62.5,76.1,63.1,74.3,63.1z"/>
<path class="fill" d="M53.4,87c-1.8,0-3.4-0.6-4.6-1.9c-1.3-1.3-1.9-2.8-1.9-4.6v-9.6h-3.7v9.6c0,1.8-0.6,3.3-1.9,4.6
	C40,86.4,38.4,87,36.6,87c-1.8,0-3.3-0.6-4.6-1.9c-1.3-1.3-1.9-2.8-1.9-4.6l0-9.6H28c-1.9,0-3.5-0.7-4.9-2c-1.3-1.3-2-3-2-4.9V30.2
	h47.7v33.9c0,1.9-0.7,3.5-2,4.9c-1.3,1.3-3,2-4.8,2h-2.2v9.6c0,1.8-0.6,3.4-1.9,4.6C56.7,86.4,55.2,87,53.4,87z"/>

<path class="hover" d="M15.7,63.1c-1.8,0-3.4-0.6-4.6-1.9c-1.3-1.3-1.9-2.8-1.9-4.6V35.7c0-1.8,0.6-3.3,1.9-4.6
	c1.3-1.3,2.8-1.9,4.6-1.9c1.8,0,3.3,0.6,4.6,1.9c1.3,1.3,1.9,2.8,1.9,4.6v20.9c0,1.8-0.6,3.3-1.9,4.6
	C19.1,62.5,17.5,63.1,15.7,63.1z"/>
<path class="hover" d="M21,31.4v-1.5c0-4.1,1.1-7.9,3.4-11.3c1.9-3,4.5-5.4,7.6-7.3l-2.7-5.1c-0.6-1.1-0.3-2.3,0.8-3l0.1,0l0.1,0
	c0.3-0.2,0.7-0.2,1-0.2c0.8,0,1.5,0.4,1.9,1.1l2.9,5.3c2.9-1.1,5.9-1.6,9.1-1.6c3.2,0,6.2,0.6,9.1,1.6L57,4.2
	C57.4,3.4,58.1,3,58.9,3c0.3,0,0.7,0.1,1,0.2l0.1,0l0.1,0c1.1,0.6,1.4,1.8,0.8,3l-2.8,5.1c3.1,1.8,5.6,4.3,7.6,7.2
	C67.9,22,69,25.8,69,29.9v1.5H21z"/>
<path class="hover" d="M74.3,63.1c-1.8,0-3.3-0.6-4.6-1.9c-1.3-1.3-1.9-2.8-1.9-4.6V35.7c0-1.8,0.6-3.4,1.9-4.6
	c1.3-1.2,2.8-1.9,4.6-1.9c1.8,0,3.3,0.6,4.6,1.9c1.3,1.2,1.9,2.8,1.9,4.6v20.9c0,1.8-0.6,3.4-1.9,4.6
	C77.6,62.5,76.1,63.1,74.3,63.1z"/>
<path class="hover" d="M53.4,87c-1.8,0-3.4-0.6-4.6-1.9c-1.3-1.3-1.9-2.8-1.9-4.6v-9.6h-3.7v9.6c0,1.8-0.6,3.3-1.9,4.6
	C40,86.4,38.4,87,36.6,87c-1.8,0-3.3-0.6-4.6-1.9c-1.3-1.3-1.9-2.8-1.9-4.6l0-9.6H28c-1.9,0-3.5-0.7-4.9-2c-1.3-1.3-2-3-2-4.9V30.2
	h47.7v33.9c0,1.9-0.7,3.5-2,4.9c-1.3,1.3-3,2-4.8,2h-2.2v9.6c0,1.8-0.6,3.4-1.9,4.6C56.7,86.4,55.2,87,53.4,87z"/>

<path class="st1" fill="#DEE1E2" d="M36.1,21.2c-0.4,0.4-0.8,0.6-1.3,0.6s-1-0.2-1.3-0.6c-0.4-0.4-0.5-0.8-0.5-1.3c0-0.5,0.2-1,0.5-1.3
	c0.4-0.4,0.8-0.6,1.3-0.6c0.5,0,1,0.2,1.3,0.6c0.4,0.4,0.6,0.8,0.6,1.3C36.6,20.4,36.4,20.8,36.1,21.2L36.1,21.2z"/>
<path class="st1" fill="#DEE1E2" d="M56.6,21.2c-0.4,0.4-0.8,0.6-1.3,0.6c-0.5,0-1-0.2-1.3-0.6c-0.4-0.4-0.6-0.8-0.6-1.3c0-0.5,0.2-1,0.6-1.3
		c0.4-0.4,0.8-0.6,1.3-0.6c0.5,0,1,0.2,1.3,0.6c0.4,0.4,0.5,0.8,0.5,1.3C57.1,20.4,56.9,20.8,56.6,21.2L56.6,21.2z"/>

<defs>
	<linearGradient id="SVGID_1_" gradientUnits="userSpaceOnUse" fy="90%">
		<stop offset="0%" stop-color="#FD712C"/>
		<stop offset="100%" stop-color="#F21780"/>
		<animate attributeName="fy" dur="700ms" from="90%" to="0%" repeatCount="indefinite" />
	</linearGradient>
</defs>
</svg>
