<?xml version="1.0" encoding="utf-8"?>
<svg version="1.1" id="Layer_1" xmlns="http://www.w3.org/2000/svg" xmlns:xlink="http://www.w3.org/1999/xlink" x="0px" y="0px"
	 viewBox="0 0 90 90" enable-background="new 0 0 90 90" xml:space="preserve">

<path class="fill" d="M45.4,25.3c-0.4,0-0.9,0-1.3-0.1l-1.7-0.1l-0.1-1.7c-0.4-5.3,1.2-9.8,4.9-14.1c2.9-3.4,7.9-6.1,12.5-6.7
	l0.1,0h2.5l0.1,1.8C63,9.9,61.4,14.7,57.7,19C55.4,21.7,51.7,25.3,45.4,25.3z"/>
<path class="fill" fill="#777777" d="M31.5,87.6l-0.1,0c-4.4-0.6-7.7-4-9.7-6.5c-7.3-8.9-11.4-19.2-12.2-30.6l0-0.1v-3.6
	c0.4-9.1,4.7-17.2,11.3-21.2c2.4-1.5,6.1-3.2,10.5-3.2c0.8,0,1.7,0.1,2.5,0.2c2.2,0.4,4.5,1.1,6.2,1.8c0.4,0.2,0.8,0.3,1.1,0.5
	c1.2,0.5,2.6,1.1,3.8,1.1c0.7,0,1.5-0.3,2.4-0.7c0.4-0.1,0.7-0.3,1.1-0.4l0.8-0.3c3.1-1.1,6.3-2.3,10.3-2.3c1,0,1.9,0.1,2.9,0.2
	c6.6,1,11.6,4,14.6,8.8l1.1,1.7l-1.7,1.1c-5.8,3.7-8.2,8.5-7.7,15c0.5,6.1,3.6,10.5,9.6,13.3l1.1,0.5v1.8l-0.1,0.3
	c-1.6,4.7-3.9,9.2-7,13.5L72,78.9c-2.6,3.6-6.2,8.6-12.6,8.6c-2.8,0-5.1-0.9-7.2-1.7c-1.9-0.7-3.7-1.5-5.9-1.5l-0.2,0
	c-2.5,0-4.5,0.8-6.6,1.6c-1.8,0.7-3.6,1.4-5.9,1.7l-0.1,0H31.5z"/>

<path class="hover" d="M45.4,25.3c-0.4,0-0.9,0-1.3-0.1l-1.7-0.1l-0.1-1.7c-0.4-5.3,1.2-9.8,4.9-14.1c2.9-3.4,7.9-6.1,12.5-6.7
	l0.1,0h2.5l0.1,1.8C63,9.9,61.4,14.7,57.7,19C55.4,21.7,51.7,25.3,45.4,25.3z"/>
<path class="hover" fill="url(#SVGID_1_)" d="M31.5,87.6l-0.1,0c-4.4-0.6-7.7-4-9.7-6.5c-7.3-8.9-11.4-19.2-12.2-30.6l0-0.1v-3.6
	c0.4-9.1,4.7-17.2,11.3-21.2c2.4-1.5,6.1-3.2,10.5-3.2c0.8,0,1.7,0.1,2.5,0.2c2.2,0.4,4.5,1.1,6.2,1.8c0.4,0.2,0.8,0.3,1.1,0.5
	c1.2,0.5,2.6,1.1,3.8,1.1c0.7,0,1.5-0.3,2.4-0.7c0.4-0.1,0.7-0.3,1.1-0.4l0.8-0.3c3.1-1.1,6.3-2.3,10.3-2.3c1,0,1.9,0.1,2.9,0.2
	c6.6,1,11.6,4,14.6,8.8l1.1,1.7l-1.7,1.1c-5.8,3.7-8.2,8.5-7.7,15c0.5,6.1,3.6,10.5,9.6,13.3l1.1,0.5v1.8l-0.1,0.3
	c-1.6,4.7-3.9,9.2-7,13.5L72,78.9c-2.6,3.6-6.2,8.6-12.6,8.6c-2.8,0-5.1-0.9-7.2-1.7c-1.9-0.7-3.7-1.5-5.9-1.5l-0.2,0
	c-2.5,0-4.5,0.8-6.6,1.6c-1.8,0.7-3.6,1.4-5.9,1.7l-0.1,0H31.5z"/>

<defs>
	<linearGradient id="SVGID_1_" gradientUnits="userSpaceOnUse" fy="90%">
		<stop offset="0%" stop-color="#FD712C"/>
		<stop offset="100%" stop-color="#F21780"/>
		<animate attributeName="fy" dur="700ms" from="90%" to="0%" repeatCount="indefinite" />
	</linearGradient>
</defs>
</svg>
