<?xml version="1.0" encoding="utf-8"?>
<svg version="1.1" id="Layer_1" xmlns="http://www.w3.org/2000/svg" xmlns:xlink="http://www.w3.org/1999/xlink" x="0px" y="0px"
	 viewBox="0 0 90 90" enable-background="new 0 0 90 90;" xml:space="preserve">

<path class="fill" d="M4.5,43h33.1V11L4.5,15.6V43z M4.5,43"/>
<polygon class="fill" points="41.3,79.3 85.4,85.3 85.4,47.1 41.3,47.1"/>
<polygon class="fill" points="41.3,43 85.4,43 85.4,4.5 41.3,10.5"/>
<polygon class="fill" points="4.5,74.2 37.6,78.8 37.6,47.1 4.5,47.1"/>

<path class="hover" d="M4.5,43h33.1V11L4.5,15.6V43z M4.5,43"/>
<polygon class="hover" points="41.3,79.3 85.4,85.3 85.4,47.1 41.3,47.1"/>
<polygon class="hover" points="41.3,43 85.4,43 85.4,4.5 41.3,10.5"/>
<polygon class="hover" points="4.5,74.2 37.6,78.8 37.6,47.1 4.5,47.1"/>

<defs>
	<linearGradient id="SVGID_1_" gradientUnits="userSpaceOnUse" fy="90%">
		<stop offset="0%" stop-color="#FD712C"/>
		<stop offset="100%" stop-color="#F21780"/>
		<animate attributeName="fy" dur="700ms" from="90%" to="0%" repeatCount="indefinite" />
	</linearGradient>
</defs>
</svg>
